<mxfile host="Electron" modified="2023-11-16T23:13:56.683Z" agent="Mozilla/5.0 (Windows NT 10.0; Win64; x64) AppleWebKit/537.36 (KHTML, like Gecko) draw.io/22.1.2 Chrome/114.0.5735.289 Electron/25.9.4 Safari/537.36" etag="y8yL7EXdidONlw66sQy3" version="22.1.2" type="device">
  <diagram id="C5RBs43oDa-KdzZeNtuy" name="Page-1">
    <mxGraphModel dx="1863" dy="606" grid="1" gridSize="10" guides="1" tooltips="1" connect="1" arrows="1" fold="1" page="1" pageScale="1" pageWidth="827" pageHeight="1169" math="0" shadow="0">
      <root>
        <mxCell id="WIyWlLk6GJQsqaUBKTNV-0" />
        <mxCell id="WIyWlLk6GJQsqaUBKTNV-1" parent="WIyWlLk6GJQsqaUBKTNV-0" />
        <mxCell id="oXcr1j0bbsDnfwAp9hgH-2" style="edgeStyle=orthogonalEdgeStyle;rounded=0;orthogonalLoop=1;jettySize=auto;html=1;exitX=0.5;exitY=1;exitDx=0;exitDy=0;entryX=0.5;entryY=0;entryDx=0;entryDy=0;" edge="1" parent="WIyWlLk6GJQsqaUBKTNV-1" source="oXcr1j0bbsDnfwAp9hgH-0" target="oXcr1j0bbsDnfwAp9hgH-1">
          <mxGeometry relative="1" as="geometry" />
        </mxCell>
        <mxCell id="oXcr1j0bbsDnfwAp9hgH-0" value="start" style="ellipse;whiteSpace=wrap;html=1;" vertex="1" parent="WIyWlLk6GJQsqaUBKTNV-1">
          <mxGeometry x="354" y="20" width="120" height="80" as="geometry" />
        </mxCell>
        <mxCell id="oXcr1j0bbsDnfwAp9hgH-4" style="edgeStyle=orthogonalEdgeStyle;rounded=0;orthogonalLoop=1;jettySize=auto;html=1;exitX=0.5;exitY=1;exitDx=0;exitDy=0;" edge="1" parent="WIyWlLk6GJQsqaUBKTNV-1" source="oXcr1j0bbsDnfwAp9hgH-1" target="oXcr1j0bbsDnfwAp9hgH-3">
          <mxGeometry relative="1" as="geometry" />
        </mxCell>
        <mxCell id="oXcr1j0bbsDnfwAp9hgH-1" value="n" style="shape=parallelogram;perimeter=parallelogramPerimeter;whiteSpace=wrap;html=1;fixedSize=1;" vertex="1" parent="WIyWlLk6GJQsqaUBKTNV-1">
          <mxGeometry x="354" y="120" width="120" height="60" as="geometry" />
        </mxCell>
        <mxCell id="oXcr1j0bbsDnfwAp9hgH-6" style="edgeStyle=orthogonalEdgeStyle;rounded=0;orthogonalLoop=1;jettySize=auto;html=1;exitX=0.5;exitY=1;exitDx=0;exitDy=0;entryX=0.5;entryY=0;entryDx=0;entryDy=0;" edge="1" parent="WIyWlLk6GJQsqaUBKTNV-1" source="oXcr1j0bbsDnfwAp9hgH-3" target="oXcr1j0bbsDnfwAp9hgH-5">
          <mxGeometry relative="1" as="geometry" />
        </mxCell>
        <mxCell id="oXcr1j0bbsDnfwAp9hgH-3" value="arr[n]&lt;br&gt;i=0" style="rounded=0;whiteSpace=wrap;html=1;" vertex="1" parent="WIyWlLk6GJQsqaUBKTNV-1">
          <mxGeometry x="354" y="210" width="120" height="60" as="geometry" />
        </mxCell>
        <mxCell id="oXcr1j0bbsDnfwAp9hgH-8" style="edgeStyle=orthogonalEdgeStyle;rounded=0;orthogonalLoop=1;jettySize=auto;html=1;exitX=0.5;exitY=1;exitDx=0;exitDy=0;entryX=0.5;entryY=0;entryDx=0;entryDy=0;" edge="1" parent="WIyWlLk6GJQsqaUBKTNV-1" source="oXcr1j0bbsDnfwAp9hgH-5" target="oXcr1j0bbsDnfwAp9hgH-7">
          <mxGeometry relative="1" as="geometry" />
        </mxCell>
        <mxCell id="oXcr1j0bbsDnfwAp9hgH-15" style="edgeStyle=orthogonalEdgeStyle;rounded=0;orthogonalLoop=1;jettySize=auto;html=1;exitX=0;exitY=0.5;exitDx=0;exitDy=0;" edge="1" parent="WIyWlLk6GJQsqaUBKTNV-1" source="oXcr1j0bbsDnfwAp9hgH-5">
          <mxGeometry relative="1" as="geometry">
            <mxPoint x="230" y="340" as="targetPoint" />
          </mxGeometry>
        </mxCell>
        <mxCell id="oXcr1j0bbsDnfwAp9hgH-5" value="i&amp;lt;n?" style="rhombus;whiteSpace=wrap;html=1;" vertex="1" parent="WIyWlLk6GJQsqaUBKTNV-1">
          <mxGeometry x="374" y="300" width="80" height="80" as="geometry" />
        </mxCell>
        <mxCell id="oXcr1j0bbsDnfwAp9hgH-10" style="edgeStyle=orthogonalEdgeStyle;rounded=0;orthogonalLoop=1;jettySize=auto;html=1;exitX=0.5;exitY=1;exitDx=0;exitDy=0;entryX=0.5;entryY=0;entryDx=0;entryDy=0;" edge="1" parent="WIyWlLk6GJQsqaUBKTNV-1" source="oXcr1j0bbsDnfwAp9hgH-7" target="oXcr1j0bbsDnfwAp9hgH-9">
          <mxGeometry relative="1" as="geometry" />
        </mxCell>
        <mxCell id="oXcr1j0bbsDnfwAp9hgH-7" value="arr[i] =&amp;nbsp;" style="shape=parallelogram;perimeter=parallelogramPerimeter;whiteSpace=wrap;html=1;fixedSize=1;" vertex="1" parent="WIyWlLk6GJQsqaUBKTNV-1">
          <mxGeometry x="354" y="410" width="120" height="60" as="geometry" />
        </mxCell>
        <mxCell id="oXcr1j0bbsDnfwAp9hgH-12" style="edgeStyle=orthogonalEdgeStyle;rounded=0;orthogonalLoop=1;jettySize=auto;html=1;exitX=0.5;exitY=1;exitDx=0;exitDy=0;" edge="1" parent="WIyWlLk6GJQsqaUBKTNV-1" source="oXcr1j0bbsDnfwAp9hgH-9" target="oXcr1j0bbsDnfwAp9hgH-11">
          <mxGeometry relative="1" as="geometry" />
        </mxCell>
        <mxCell id="oXcr1j0bbsDnfwAp9hgH-9" value="nhap gia tri" style="shape=parallelogram;perimeter=parallelogramPerimeter;whiteSpace=wrap;html=1;fixedSize=1;" vertex="1" parent="WIyWlLk6GJQsqaUBKTNV-1">
          <mxGeometry x="354" y="500" width="120" height="60" as="geometry" />
        </mxCell>
        <mxCell id="oXcr1j0bbsDnfwAp9hgH-13" style="edgeStyle=orthogonalEdgeStyle;rounded=0;orthogonalLoop=1;jettySize=auto;html=1;exitX=1;exitY=0.5;exitDx=0;exitDy=0;entryX=1;entryY=0.5;entryDx=0;entryDy=0;" edge="1" parent="WIyWlLk6GJQsqaUBKTNV-1" source="oXcr1j0bbsDnfwAp9hgH-11" target="oXcr1j0bbsDnfwAp9hgH-5">
          <mxGeometry relative="1" as="geometry">
            <mxPoint x="520" y="620" as="targetPoint" />
            <Array as="points">
              <mxPoint x="520" y="620" />
              <mxPoint x="520" y="340" />
            </Array>
          </mxGeometry>
        </mxCell>
        <mxCell id="oXcr1j0bbsDnfwAp9hgH-11" value="i++" style="rounded=0;whiteSpace=wrap;html=1;" vertex="1" parent="WIyWlLk6GJQsqaUBKTNV-1">
          <mxGeometry x="354" y="590" width="120" height="60" as="geometry" />
        </mxCell>
        <mxCell id="oXcr1j0bbsDnfwAp9hgH-14" value="true" style="text;html=1;align=center;verticalAlign=middle;resizable=0;points=[];autosize=1;strokeColor=none;fillColor=none;" vertex="1" parent="WIyWlLk6GJQsqaUBKTNV-1">
          <mxGeometry x="410" y="378" width="40" height="30" as="geometry" />
        </mxCell>
        <mxCell id="oXcr1j0bbsDnfwAp9hgH-16" value="false" style="text;html=1;align=center;verticalAlign=middle;resizable=0;points=[];autosize=1;strokeColor=none;fillColor=none;" vertex="1" parent="WIyWlLk6GJQsqaUBKTNV-1">
          <mxGeometry x="275" y="308" width="50" height="30" as="geometry" />
        </mxCell>
        <mxCell id="oXcr1j0bbsDnfwAp9hgH-19" style="edgeStyle=orthogonalEdgeStyle;rounded=0;orthogonalLoop=1;jettySize=auto;html=1;exitX=0;exitY=0.5;exitDx=0;exitDy=0;" edge="1" parent="WIyWlLk6GJQsqaUBKTNV-1" source="oXcr1j0bbsDnfwAp9hgH-17" target="oXcr1j0bbsDnfwAp9hgH-18">
          <mxGeometry relative="1" as="geometry" />
        </mxCell>
        <mxCell id="oXcr1j0bbsDnfwAp9hgH-17" value="i=1" style="rounded=0;whiteSpace=wrap;html=1;" vertex="1" parent="WIyWlLk6GJQsqaUBKTNV-1">
          <mxGeometry x="110" y="310" width="120" height="60" as="geometry" />
        </mxCell>
        <mxCell id="oXcr1j0bbsDnfwAp9hgH-21" style="edgeStyle=orthogonalEdgeStyle;rounded=0;orthogonalLoop=1;jettySize=auto;html=1;exitX=0.5;exitY=1;exitDx=0;exitDy=0;" edge="1" parent="WIyWlLk6GJQsqaUBKTNV-1" source="oXcr1j0bbsDnfwAp9hgH-18" target="oXcr1j0bbsDnfwAp9hgH-20">
          <mxGeometry relative="1" as="geometry" />
        </mxCell>
        <mxCell id="oXcr1j0bbsDnfwAp9hgH-23" style="edgeStyle=orthogonalEdgeStyle;rounded=0;orthogonalLoop=1;jettySize=auto;html=1;exitX=0.5;exitY=0;exitDx=0;exitDy=0;" edge="1" parent="WIyWlLk6GJQsqaUBKTNV-1" source="oXcr1j0bbsDnfwAp9hgH-18">
          <mxGeometry relative="1" as="geometry">
            <mxPoint x="-10" y="200" as="targetPoint" />
          </mxGeometry>
        </mxCell>
        <mxCell id="oXcr1j0bbsDnfwAp9hgH-18" value="i&amp;lt;n?" style="rhombus;whiteSpace=wrap;html=1;" vertex="1" parent="WIyWlLk6GJQsqaUBKTNV-1">
          <mxGeometry x="-50" y="300" width="80" height="80" as="geometry" />
        </mxCell>
        <mxCell id="oXcr1j0bbsDnfwAp9hgH-22" style="edgeStyle=orthogonalEdgeStyle;rounded=0;orthogonalLoop=1;jettySize=auto;html=1;exitX=0;exitY=0.5;exitDx=0;exitDy=0;" edge="1" parent="WIyWlLk6GJQsqaUBKTNV-1" source="oXcr1j0bbsDnfwAp9hgH-20">
          <mxGeometry relative="1" as="geometry">
            <mxPoint x="-140" y="470" as="targetPoint" />
          </mxGeometry>
        </mxCell>
        <mxCell id="oXcr1j0bbsDnfwAp9hgH-20" value="key = arr[i]&lt;br&gt;j= i-1&amp;nbsp;" style="rounded=0;whiteSpace=wrap;html=1;" vertex="1" parent="WIyWlLk6GJQsqaUBKTNV-1">
          <mxGeometry x="-70" y="440" width="120" height="60" as="geometry" />
        </mxCell>
        <mxCell id="oXcr1j0bbsDnfwAp9hgH-24" value="false" style="text;html=1;align=center;verticalAlign=middle;resizable=0;points=[];autosize=1;strokeColor=none;fillColor=none;" vertex="1" parent="WIyWlLk6GJQsqaUBKTNV-1">
          <mxGeometry x="-15" y="238" width="50" height="30" as="geometry" />
        </mxCell>
        <mxCell id="oXcr1j0bbsDnfwAp9hgH-25" value="end" style="ellipse;whiteSpace=wrap;html=1;" vertex="1" parent="WIyWlLk6GJQsqaUBKTNV-1">
          <mxGeometry x="-70" y="120" width="120" height="80" as="geometry" />
        </mxCell>
        <mxCell id="oXcr1j0bbsDnfwAp9hgH-26" value="true" style="text;html=1;align=center;verticalAlign=middle;resizable=0;points=[];autosize=1;strokeColor=none;fillColor=none;" vertex="1" parent="WIyWlLk6GJQsqaUBKTNV-1">
          <mxGeometry x="-20" y="388" width="40" height="30" as="geometry" />
        </mxCell>
        <mxCell id="oXcr1j0bbsDnfwAp9hgH-28" style="edgeStyle=orthogonalEdgeStyle;rounded=0;orthogonalLoop=1;jettySize=auto;html=1;exitX=0;exitY=0.5;exitDx=0;exitDy=0;" edge="1" parent="WIyWlLk6GJQsqaUBKTNV-1" source="oXcr1j0bbsDnfwAp9hgH-27">
          <mxGeometry relative="1" as="geometry">
            <mxPoint x="-280" y="470" as="targetPoint" />
          </mxGeometry>
        </mxCell>
        <mxCell id="oXcr1j0bbsDnfwAp9hgH-32" style="edgeStyle=orthogonalEdgeStyle;rounded=0;orthogonalLoop=1;jettySize=auto;html=1;exitX=0.5;exitY=0;exitDx=0;exitDy=0;" edge="1" parent="WIyWlLk6GJQsqaUBKTNV-1" source="oXcr1j0bbsDnfwAp9hgH-27">
          <mxGeometry relative="1" as="geometry">
            <mxPoint x="-180" y="360" as="targetPoint" />
          </mxGeometry>
        </mxCell>
        <mxCell id="oXcr1j0bbsDnfwAp9hgH-27" value="j&amp;gt;=0 &amp;amp;&amp;amp; arr[i] &amp;gt; key" style="rhombus;whiteSpace=wrap;html=1;" vertex="1" parent="WIyWlLk6GJQsqaUBKTNV-1">
          <mxGeometry x="-220" y="430" width="80" height="80" as="geometry" />
        </mxCell>
        <mxCell id="oXcr1j0bbsDnfwAp9hgH-30" style="edgeStyle=orthogonalEdgeStyle;rounded=0;orthogonalLoop=1;jettySize=auto;html=1;exitX=0.5;exitY=1;exitDx=0;exitDy=0;entryX=0.5;entryY=1;entryDx=0;entryDy=0;" edge="1" parent="WIyWlLk6GJQsqaUBKTNV-1" source="oXcr1j0bbsDnfwAp9hgH-29" target="oXcr1j0bbsDnfwAp9hgH-27">
          <mxGeometry relative="1" as="geometry">
            <mxPoint x="-340" y="550" as="targetPoint" />
            <Array as="points">
              <mxPoint x="-340" y="550" />
              <mxPoint x="-180" y="550" />
            </Array>
          </mxGeometry>
        </mxCell>
        <mxCell id="oXcr1j0bbsDnfwAp9hgH-29" value="arr[j+1] = arr [j]&lt;br&gt;j = j -1" style="rounded=0;whiteSpace=wrap;html=1;" vertex="1" parent="WIyWlLk6GJQsqaUBKTNV-1">
          <mxGeometry x="-400" y="440" width="120" height="60" as="geometry" />
        </mxCell>
        <mxCell id="oXcr1j0bbsDnfwAp9hgH-31" value="true" style="text;html=1;align=center;verticalAlign=middle;resizable=0;points=[];autosize=1;strokeColor=none;fillColor=none;" vertex="1" parent="WIyWlLk6GJQsqaUBKTNV-1">
          <mxGeometry x="-270" y="448" width="40" height="30" as="geometry" />
        </mxCell>
        <mxCell id="oXcr1j0bbsDnfwAp9hgH-34" style="edgeStyle=orthogonalEdgeStyle;rounded=0;orthogonalLoop=1;jettySize=auto;html=1;exitX=0.5;exitY=0;exitDx=0;exitDy=0;entryX=0;entryY=0.5;entryDx=0;entryDy=0;" edge="1" parent="WIyWlLk6GJQsqaUBKTNV-1" source="oXcr1j0bbsDnfwAp9hgH-33" target="oXcr1j0bbsDnfwAp9hgH-18">
          <mxGeometry relative="1" as="geometry">
            <mxPoint x="-170" y="240" as="targetPoint" />
            <Array as="points">
              <mxPoint x="-170" y="240" />
              <mxPoint x="-50" y="240" />
            </Array>
          </mxGeometry>
        </mxCell>
        <mxCell id="oXcr1j0bbsDnfwAp9hgH-33" value="arr[j+1] = key" style="rounded=0;whiteSpace=wrap;html=1;" vertex="1" parent="WIyWlLk6GJQsqaUBKTNV-1">
          <mxGeometry x="-230" y="300" width="120" height="60" as="geometry" />
        </mxCell>
      </root>
    </mxGraphModel>
  </diagram>
</mxfile>
